<svg xmlns="http://www.w3.org/2000/svg" viewBox="0 0 400 300">
  <defs>
    <linearGradient id="bg2" x1="0" y1="0" x2="1" y2="1">
      <stop offset="0" stop-color="#f1f3ff"/>
      <stop offset="1" stop-color="#e1e8fd"/>
    </linearGradient>
  </defs>
  <rect width="400" height="300" fill="url(#bg2)"/>
  <g transform="translate(110,50)">
    <rect x="0" y="0" width="180" height="200" rx="8" fill="#141b2b"/>
    <g>
      <rect x="12" y="14" width="156" height="34" rx="4" fill="#293040"/>
      <circle cx="26" cy="31" r="5" fill="#70dd85"/>
      <rect x="42" y="26" width="80" height="10" rx="2" fill="#3e4a3e"/>
    </g>
    <g>
      <rect x="12" y="58" width="156" height="34" rx="4" fill="#293040"/>
      <circle cx="26" cy="75" r="5" fill="#fabd00"/>
      <rect x="42" y="70" width="80" height="10" rx="2" fill="#3e4a3e"/>
    </g>
    <g>
      <rect x="12" y="102" width="156" height="34" rx="4" fill="#293040"/>
      <circle cx="26" cy="119" r="5" fill="#70dd85"/>
      <rect x="42" y="114" width="80" height="10" rx="2" fill="#3e4a3e"/>
    </g>
    <g>
      <rect x="12" y="146" width="156" height="34" rx="4" fill="#293040"/>
      <circle cx="26" cy="163" r="5" fill="#ff8927"/>
      <rect x="42" y="158" width="80" height="10" rx="2" fill="#3e4a3e"/>
    </g>
  </g>
</svg>
